<svg id="Layer_1" data-name="Layer 1" xmlns="http://www.w3.org/2000/svg" xmlns:xlink="http://www.w3.org/1999/xlink" viewBox="0 0 840.1 239.47">
  <defs>
    <style>
      .cls-1 {
        fill: none;
      }

      .cls-1, .cls-2, .cls-3 {
        stroke-width: 0px;
      }

      .cls-4 {
        clip-path: url(#clippath);
      }

      .cls-2 {
        fill: #10069f;
      }

      .cls-3 {
        fill: #242424;
      }
    </style>
    <clipPath id="clippath">
      <rect class="cls-1" width="840.1" height="239.47"/>
    </clipPath>
  </defs>
  <g class="cls-4">
    <g>
      <path class="cls-2" d="M155.56,174.54c-1.42-20.57-11.66-35.2-30.35-43.9-.6-.28-1.2-.57-1.98-.95,9.93-8.4,14.77-19.07,16.24-31.57,2.44-20.85-8.53-40.91-27.44-50.03-10.82-5.21-22.24-7.25-34.15-7.25H0v194.29h1.85c30.37,0,60.76.1,91.14-.1,5.79-.03,11.66-.74,17.33-1.94,12.74-2.7,23.87-8.54,32.5-18.54,9.93-11.51,13.78-25.06,12.74-40.02h0ZM46.62,81.04c.36-.11.59-.24.8-.24,9.5.1,19.01-.09,28.5.4,8.47.44,14.8,5.67,16.72,12.83,3.11,11.6-3.46,21.79-15.37,23.49-3.77.54-7.64.49-11.47.53-6.31.09-12.61.02-19.18.02v-37.04h0ZM107.17,183.57c-2.75,6.73-8.4,9.5-15.07,10.72-2.03.38-4.13.53-6.19.54-13.02.04-26.03.02-39.33.02v-37.9c.33-.12.61-.29.89-.29,13.82.06,27.64.1,41.45.28,2.12.02,4.29.55,6.33,1.18,11.2,3.47,16.36,14.55,11.91,25.44h0Z"/>
      <path class="cls-2" d="M647.03,235.14h-25.33c-8.31,0-15.99-.04-23.98.04-1.64.02-2.53-.46-3.34-1.95-9.94-18.04-19.98-36.03-29.92-54.07-.84-1.53-1.72-2.15-3.49-2.1-4.77.13-9.55.05-14.56.05v57.87h-12.8c-17.68,0-32.02-14.34-32.02-32.02v-70.12c0-17.68,14.34-32.02,32.02-32.02h12.72v73.18c.19.04.38.09.56.13.5-.76,1.04-1.5,1.51-2.28,13.97-22.82,27.96-45.63,41.88-68.48.95-1.56,1.94-2.13,3.78-2.12,14.87.09,29.74.05,44.61.05h2.81c-.62,1-1.04,1.72-1.5,2.42-11.73,18.01-23.43,36.02-35.22,53.99-.98,1.49-.97,2.52-.09,4.04,13.63,23.48,27.19,47,40.77,70.51.47.82.92,1.65,1.6,2.88h0Z"/>
      <path class="cls-2" d="M320.48,161.51c-.04-1.19-.24-2.38-.4-3.57-3.09-22.98-14.34-40.68-34.77-51.8-20.54-11.19-42.37-12.43-64.58-5.89-19.03,5.61-33.27,17.37-41.97,35.34-7.01,14.49-8.56,29.85-5.9,45.59,3.25,19.19,12.67,34.7,28.97,45.57,17.24,11.49,36.43,14.49,56.65,11.78,37.22-4.98,62.15-33.42,62.01-70.8,0-2.07.04-4.15,0-6.23h0ZM265.09,194.03c-9.92,7.25-20.99,7.95-32.1,3.35-10.67-4.42-15.63-13.38-17.08-24.5-1.07-8.16-.02-16.02,4.3-23.11,6.69-10.98,17.05-14.86,29.33-13.61,16.9,1.72,27.31,14.02,27.33,33.32-.24,8.65-3,18.12-11.78,24.55Z"/>
      <path class="cls-2" d="M484.01,157.98c-3.06-23.08-14.4-40.81-34.94-51.93-20.41-11.06-42.09-12.27-64.15-5.88-17.98,5.2-31.83,16.03-40.81,32.62-7.51,13.86-9.69,28.8-7.88,44.35,2.27,19.39,10.75,35.45,26.38,47.4,12.26,9.37,26.36,13.79,41.6,14.72,16.39,1.01,32.09-1.72,46.33-10.21,23.13-13.78,33.48-34.85,34.21-61.59-.22-2.95-.31-6.23-.75-9.47h.01ZM429.54,193.63c-9.93,7.62-21.15,8.41-32.44,3.83-10.79-4.39-15.8-13.42-17.25-24.64-1.04-8.09-.01-15.87,4.22-22.89,6.63-11.02,16.96-14.97,29.26-13.79,17.01,1.65,27.5,14.01,27.49,33.38-.23,8.42-2.87,17.69-11.27,24.12h0Z"/>
      <path class="cls-2" d="M840.1,94.21c0,5.26-2.12,10.01-5.57,13.44-3.44,3.45-8.19,5.57-13.44,5.57h-18.54v122h-45.04v-121.92h-6.5c-8.47,0-19.31-2.74-12.39-18.83,12.11-19.64,24.22-39.27,36.29-58.94.91-1.5,1.9-1.99,3.62-1.97,7.11.1,14.22.04,21.34.04h2.56v41.58h18.66c10.5,0,19.01,8.52,19.01,19.01v.02Z"/>
      <path class="cls-2" d="M691.36,101.39c12.32,0,22.3,9.99,22.3,22.3v111.35h-44.61v-111.35c0-12.32,9.99-22.3,22.3-22.3h.01Z"/>
      <path class="cls-2" d="M691.25,33.96c13.43-.03,24,8.4,26.27,20.96,2.54,14.05-6.7,27.3-20.79,29.52-11.38,1.79-21.28-1.1-28.04-10.89-11.05-16.03-.09-38,19.45-39.44,1.04-.08,2.08-.1,3.11-.15Z"/>
      <path class="cls-3" d="M185.37,90.55c-.17-36.67-17.77-64.04-50.92-79.17C110.47.43,86.71,0,85.71,0c-6.47-.04-11.89,5.16-11.98,11.71-.09,6.55,5.13,11.94,11.67,12.05,3.11.05,76.28,2.04,76.28,67.33,0,6.91,5.89,12.45,12.92,11.84,6.21-.54,10.82-6.14,10.79-12.39h-.02Z"/>
    </g>
  </g>
</svg>